# xmcd CD database file
#
# Track frame offsets:
#	150
#	20592
#	50610
#	72145
#	94717
#	128014
#	145812
#	170939
#	194302
#	224483
#	245866
#	288886
#
# Disc length: 4615 seconds
#
# Revision: 0
# Processed by: cddbd v1.4PL0 Copyright (c) Steve Scherf et al.
# Submitted via: CDex 1.50Beta7
#
DISCID=bb12050c
DTITLE=Art Of Noise - Moments In Love
DYEAR=2002
DGENRE=New Age
TTITLE0=Moments In Love
TTITLE1=Your Dream Of Mine
TTITLE2=Roller 10
TTITLE3=L.E.F.
TTITLE4=Camilla - The Old, Old Story
TTITLE5=Beatbox Diversion 10
TTITLE6=The Chameleon's Dish # Beatback
TTITLE7=The Art Of Slow Love
TTITLE8=Dreaming In Colour
TTITLE9=(Three Fingers Of) Love
TTITLE10=Moments In Love
TTITLE11=Moments In Love (video)
EXTD=YEAR: 2002
EXTT0=
EXTT1=
EXTT2=
EXTT3=
EXTT4=
EXTT5=
EXTT6=
EXTT7=
EXTT8=
EXTT9=
EXTT10=
EXTT11=
PLAYORDER=
